<svg xmlns="http://www.w3.org/2000/svg" xmlns:xlink="http://www.w3.org/1999/xlink" width="200" zoomAndPan="magnify" viewBox="0 0 150 74.999997" height="100" preserveAspectRatio="xMidYMid meet" version="1.0"><defs><g/></defs><g fill="rgb(0%, 0%, 0%)" fill-opacity="1"><g transform="translate(5.908938, 37.47296)"><g><path d="M 8.542969 -5.253906 L 8.542969 -7.871094 L 4.042969 -7.871094 L 4.042969 -10.46875 L 8.738281 -10.46875 L 8.738281 -13.085938 L 1.15625 -13.085938 L 1.15625 0 L 4.042969 0 L 4.042969 -5.253906 Z M 8.542969 -5.253906 "/></g></g></g><g fill="rgb(0%, 0%, 0%)" fill-opacity="1"><g transform="translate(19.456112, 37.47296)"><g><path d="M 8.796875 -13.085938 L 8.796875 -5.523438 C 8.796875 -3.714844 8.257812 -2.695312 6.273438 -2.695312 C 4.3125 -2.695312 3.753906 -3.714844 3.753906 -5.523438 L 3.753906 -13.085938 L 0.867188 -13.085938 L 0.867188 -5.101562 C 0.867188 -1.617188 2.867188 0.191406 6.273438 0.191406 C 9.679688 0.191406 11.683594 -1.617188 11.683594 -5.101562 L 11.683594 -13.085938 Z M 8.796875 -13.085938 "/></g></g></g><g fill="rgb(0%, 0%, 0%)" fill-opacity="1"><g transform="translate(35.851126, 37.47296)"><g><path d="M 4.042969 -4.675781 L 4.0625 -4.675781 L 7.179688 0 L 10.835938 0 L 7.082031 -4.8125 C 8.738281 -5.214844 10.066406 -6.679688 10.066406 -8.890625 C 10.066406 -11.375 8.179688 -13.085938 6.0625 -13.085938 L 1.15625 -13.085938 L 1.15625 0 L 4.042969 0 Z M 5.582031 -10.816406 C 6.429688 -10.816406 7.3125 -10.085938 7.3125 -8.890625 C 7.3125 -7.640625 6.429688 -6.949219 5.582031 -6.949219 L 4.042969 -6.949219 L 4.042969 -10.816406 Z M 5.582031 -10.816406 "/></g></g></g><g fill="rgb(0%, 0%, 0%)" fill-opacity="1"><g transform="translate(50.302681, 37.47296)"><g><path d="M 11.429688 0 L 11.429688 -13.085938 L 8.542969 -13.085938 L 8.542969 -4.925781 L 4.042969 -13.085938 L 1.15625 -13.085938 L 1.15625 0 L 4.042969 0 L 4.042969 -8.160156 L 8.542969 0 Z M 11.429688 0 "/></g></g></g><g fill="rgb(52.549744%, 33.729553%, 27.839661%)" fill-opacity="1"><g transform="translate(66.729245, 37.47296)"><g><path d="M 8.351562 -13.085938 L 8.351562 -7.871094 L 4.042969 -7.871094 L 4.042969 -13.085938 L 1.15625 -13.085938 L 1.15625 0 L 4.042969 0 L 4.042969 -5.253906 L 8.351562 -5.253906 L 8.351562 0 L 11.429688 0 L 11.429688 -13.085938 Z M 8.351562 -13.085938 "/></g></g></g><g fill="rgb(52.549744%, 33.729553%, 27.839661%)" fill-opacity="1"><g transform="translate(83.162745, 37.47296)"><g><path d="M 11.257812 -6.5625 C 11.257812 -4.542969 9.429688 -2.695312 7.410156 -2.695312 C 5.386719 -2.695312 3.558594 -4.542969 3.558594 -6.5625 C 3.558594 -8.582031 5.386719 -10.410156 7.410156 -10.410156 C 9.429688 -10.410156 11.257812 -8.582031 11.257812 -6.5625 Z M 14.144531 -6.542969 C 14.144531 -10.160156 11.027344 -13.277344 7.410156 -13.277344 C 3.792969 -13.277344 0.671875 -10.160156 0.671875 -6.542969 C 0.671875 -2.925781 3.792969 0.191406 7.410156 0.191406 C 11.027344 0.191406 14.144531 -2.925781 14.144531 -6.542969 Z M 14.144531 -6.542969 "/></g></g></g><g fill="rgb(52.549744%, 33.729553%, 27.839661%)" fill-opacity="1"><g transform="translate(101.828335, 37.47296)"><g><path d="M 8.796875 -13.085938 L 8.796875 -5.523438 C 8.796875 -3.714844 8.257812 -2.695312 6.273438 -2.695312 C 4.3125 -2.695312 3.753906 -3.714844 3.753906 -5.523438 L 3.753906 -13.085938 L 0.867188 -13.085938 L 0.867188 -5.101562 C 0.867188 -1.617188 2.867188 0.191406 6.273438 0.191406 C 9.679688 0.191406 11.683594 -1.617188 11.683594 -5.101562 L 11.683594 -13.085938 Z M 8.796875 -13.085938 "/></g></g></g><g fill="rgb(52.549744%, 33.729553%, 27.839661%)" fill-opacity="1"><g transform="translate(118.223351, 37.47296)"><g><path d="M 6.234375 -2.039062 C 4.8125 -2.039062 3.578125 -2.753906 3.503906 -4.3125 L 0.578125 -4.3125 C 0.597656 -1.117188 3.234375 0.308594 6.121094 0.308594 C 8.796875 0.308594 11.546875 -0.828125 11.546875 -3.90625 C 11.546875 -8.890625 3.984375 -7.21875 3.984375 -9.546875 C 3.984375 -10.527344 5.121094 -10.910156 5.925781 -10.910156 C 7.371094 -10.910156 8.160156 -10.46875 8.3125 -9.101562 L 11.105469 -9.101562 C 11.007812 -12.085938 8.582031 -13.277344 5.890625 -13.277344 C 3.503906 -13.277344 1 -12.007812 1 -9.316406 C 1 -4.484375 8.5625 -6.121094 8.5625 -3.578125 C 8.5625 -2.40625 7.140625 -2.039062 6.234375 -2.039062 Z M 6.234375 -2.039062 "/></g></g></g><g fill="rgb(52.549744%, 33.729553%, 27.839661%)" fill-opacity="1"><g transform="translate(134.195033, 37.47296)"><g><path d="M 8.738281 -2.617188 L 4.042969 -2.617188 L 4.042969 -5.253906 L 8.542969 -5.253906 L 8.542969 -7.871094 L 4.042969 -7.871094 L 4.042969 -10.46875 L 8.738281 -10.46875 L 8.738281 -13.085938 L 1.15625 -13.085938 L 1.15625 0 L 8.738281 0 Z M 8.738281 -2.617188 "/></g></g></g><g fill="rgb(0%, 0%, 0%)" fill-opacity="1"><g transform="translate(12.912651, 53.656506)"><g><path d="M 1.085938 0 L 1.085938 -5.613281 L 0.5625 -5.613281 L 0.5625 0 Z M 1.085938 0 "/></g></g></g><g fill="rgb(0%, 0%, 0%)" fill-opacity="1"><g transform="translate(16.055136, 53.656506)"><g><path d="M 3.777344 -1.722656 C 3.777344 -2.167969 3.597656 -2.558594 3.253906 -2.894531 C 2.917969 -3.21875 2.515625 -3.382812 2.058594 -3.382812 C 1.578125 -3.382812 1.175781 -3.210938 0.839844 -2.875 C 0.5 -2.535156 0.335938 -2.132812 0.335938 -1.660156 C 0.335938 -1.183594 0.5 -0.777344 0.839844 -0.449219 C 0.996094 -0.292969 1.175781 -0.171875 1.382812 -0.0820312 C 1.59375 0.0078125 1.839844 0.0507812 2.132812 0.0507812 C 2.425781 0.0507812 2.707031 -0.0390625 2.992188 -0.21875 C 3.277344 -0.398438 3.488281 -0.652344 3.628906 -0.964844 L 3.03125 -0.964844 C 2.910156 -0.808594 2.769531 -0.6875 2.597656 -0.597656 C 2.425781 -0.507812 2.246094 -0.472656 2.058594 -0.472656 C 1.773438 -0.472656 1.519531 -0.5625 1.292969 -0.75 C 1.070312 -0.929688 0.929688 -1.160156 0.882812 -1.445312 L 3.777344 -1.445312 Z M 3.226562 -1.894531 L 0.890625 -1.894531 C 0.921875 -2.027344 0.972656 -2.15625 1.046875 -2.273438 C 1.285156 -2.664062 1.625 -2.859375 2.058594 -2.859375 C 2.335938 -2.859375 2.582031 -2.769531 2.796875 -2.589844 C 3.023438 -2.402344 3.15625 -2.167969 3.226562 -1.894531 Z M 3.226562 -1.894531 "/></g></g></g><g fill="rgb(0%, 0%, 0%)" fill-opacity="1"><g transform="translate(21.629315, 53.656506)"><g><path d="M 0.148438 -2.804688 L 0.972656 -2.804688 L 0.972656 0 L 1.496094 0 L 1.496094 -2.804688 L 2.3125 -2.804688 L 2.3125 -3.292969 L 1.496094 -3.292969 L 1.496094 -4.570312 L 0.972656 -4.570312 L 0.972656 -3.292969 L 0.148438 -3.292969 Z M 0.148438 -2.804688 "/></g></g></g><g fill="rgb(0%, 0%, 0%)" fill-opacity="1"><g transform="translate(25.587357, 53.656506)"><g><path d="M 1.03125 -0.464844 C 0.90625 -0.554688 0.808594 -0.703125 0.753906 -0.921875 L 0.203125 -0.921875 C 0.3125 -0.238281 0.75 0.0976562 1.511719 0.0976562 C 1.691406 0.0976562 1.855469 0.0820312 2.011719 0.0390625 C 2.167969 -0.0078125 2.304688 -0.0664062 2.433594 -0.148438 C 2.6875 -0.320312 2.8125 -0.582031 2.8125 -0.933594 C 2.8125 -1.292969 2.648438 -1.546875 2.304688 -1.714844 C 2.164062 -1.78125 2.003906 -1.832031 1.832031 -1.871094 C 1.667969 -1.90625 1.511719 -1.953125 1.371094 -1.996094 C 1.21875 -2.042969 1.101562 -2.101562 1.003906 -2.167969 C 0.90625 -2.238281 0.851562 -2.34375 0.851562 -2.492188 C 0.851562 -2.640625 0.914062 -2.753906 1.03125 -2.820312 C 1.152344 -2.894531 1.292969 -2.933594 1.453125 -2.933594 C 1.617188 -2.933594 1.757812 -2.894531 1.871094 -2.835938 C 1.984375 -2.777344 2.074219 -2.65625 2.125 -2.476562 L 2.6875 -2.476562 C 2.617188 -2.804688 2.476562 -3.039062 2.265625 -3.164062 C 2.050781 -3.300781 1.789062 -3.367188 1.464844 -3.367188 C 1.152344 -3.367188 0.875 -3.277344 0.644531 -3.113281 C 0.417969 -2.941406 0.300781 -2.695312 0.300781 -2.363281 C 0.300781 -2.207031 0.34375 -2.066406 0.425781 -1.945312 C 0.515625 -1.816406 0.644531 -1.722656 0.808594 -1.644531 C 0.957031 -1.578125 1.113281 -1.527344 1.28125 -1.480469 C 1.445312 -1.445312 1.601562 -1.398438 1.75 -1.355469 C 2.085938 -1.242188 2.257812 -1.078125 2.257812 -0.867188 C 2.257812 -0.507812 2.019531 -0.335938 1.542969 -0.335938 C 1.339844 -0.335938 1.167969 -0.375 1.03125 -0.464844 Z M 1.03125 -0.464844 "/></g></g></g><g fill="rgb(0%, 0%, 0%)" fill-opacity="1"><g transform="translate(30.091595, 53.656506)"><g/></g></g><g fill="rgb(0%, 0%, 0%)" fill-opacity="1"><g transform="translate(33.60819, 53.656506)"><g><path d="M 1.085938 0 L 1.085938 -0.5625 C 1.105469 -0.515625 1.144531 -0.480469 1.175781 -0.449219 C 1.488281 -0.0976562 1.871094 0.0742188 2.328125 0.0742188 C 2.777344 0.0742188 3.15625 -0.0976562 3.472656 -0.449219 C 3.769531 -0.785156 3.929688 -1.183594 3.929688 -1.644531 C 3.929688 -2.101562 3.769531 -2.5 3.472656 -2.84375 C 3.15625 -3.1875 2.777344 -3.367188 2.328125 -3.367188 C 1.871094 -3.367188 1.488281 -3.1875 1.175781 -2.84375 C 1.144531 -2.804688 1.105469 -2.769531 1.085938 -2.722656 L 1.085938 -5.613281 L 0.5625 -5.613281 L 0.5625 0 Z M 3.40625 -1.644531 C 3.40625 -1.324219 3.292969 -1.039062 3.066406 -0.808594 C 2.84375 -0.570312 2.566406 -0.449219 2.246094 -0.449219 C 1.914062 -0.449219 1.636719 -0.570312 1.414062 -0.808594 C 1.191406 -1.039062 1.085938 -1.324219 1.085938 -1.644531 C 1.085938 -1.960938 1.191406 -2.246094 1.414062 -2.484375 C 1.636719 -2.722656 1.914062 -2.84375 2.246094 -2.84375 C 2.566406 -2.84375 2.84375 -2.722656 3.066406 -2.484375 C 3.292969 -2.246094 3.40625 -1.960938 3.40625 -1.644531 Z M 3.40625 -1.644531 "/></g></g></g><g fill="rgb(0%, 0%, 0%)" fill-opacity="1"><g transform="translate(39.369424, 53.656506)"><g><path d="M 2.835938 -0.5625 L 2.835938 0 L 3.359375 0 L 3.359375 -3.292969 L 2.835938 -3.292969 L 2.835938 -1.914062 C 2.835938 -1.453125 2.746094 -1.101562 2.574219 -0.839844 C 2.410156 -0.582031 2.117188 -0.457031 1.714844 -0.457031 C 1.488281 -0.457031 1.324219 -0.53125 1.226562 -0.679688 C 1.128906 -0.832031 1.085938 -1.015625 1.085938 -1.234375 L 1.085938 -3.292969 L 0.5625 -3.292969 L 0.5625 -1.234375 C 0.5625 -0.851562 0.660156 -0.539062 0.867188 -0.292969 C 1.078125 -0.0507812 1.363281 0.0664062 1.734375 0.0664062 C 2.222656 0.0664062 2.589844 -0.140625 2.835938 -0.5625 Z M 2.835938 -0.5625 "/></g></g></g><g fill="rgb(0%, 0%, 0%)" fill-opacity="1"><g transform="translate(44.674255, 53.656506)"><g><path d="M 1.09375 -4.429688 C 1.023438 -4.488281 0.941406 -4.527344 0.851562 -4.527344 C 0.761719 -4.527344 0.679688 -4.488281 0.621094 -4.429688 C 0.554688 -4.363281 0.523438 -4.28125 0.523438 -4.191406 C 0.523438 -4.101562 0.554688 -4.019531 0.621094 -3.957031 C 0.679688 -3.890625 0.761719 -3.859375 0.851562 -3.859375 C 0.941406 -3.859375 1.023438 -3.890625 1.09375 -3.957031 C 1.152344 -4.019531 1.191406 -4.101562 1.191406 -4.191406 C 1.191406 -4.28125 1.152344 -4.363281 1.09375 -4.429688 Z M 1.121094 0 L 1.121094 -3.292969 L 0.597656 -3.292969 L 0.597656 0 Z M 1.121094 0 "/></g></g></g><g fill="rgb(0%, 0%, 0%)" fill-opacity="1"><g transform="translate(47.884081, 53.656506)"><g><path d="M 1.085938 0 L 1.085938 -5.613281 L 0.5625 -5.613281 L 0.5625 0 Z M 1.085938 0 "/></g></g></g><g fill="rgb(0%, 0%, 0%)" fill-opacity="1"><g transform="translate(51.026568, 53.656506)"><g><path d="M 3.179688 -1.644531 C 3.179688 -1.324219 3.066406 -1.039062 2.84375 -0.808594 C 2.617188 -0.570312 2.34375 -0.449219 2.019531 -0.449219 C 1.691406 -0.449219 1.414062 -0.570312 1.191406 -0.808594 C 0.964844 -1.039062 0.859375 -1.324219 0.859375 -1.644531 C 0.859375 -1.960938 0.964844 -2.246094 1.191406 -2.484375 C 1.414062 -2.722656 1.691406 -2.84375 2.019531 -2.84375 C 2.34375 -2.84375 2.617188 -2.722656 2.84375 -2.484375 C 3.066406 -2.246094 3.179688 -1.960938 3.179688 -1.644531 Z M 3.703125 0 L 3.703125 -5.613281 L 3.179688 -5.613281 L 3.179688 -2.722656 C 3.148438 -2.769531 3.113281 -2.804688 3.082031 -2.84375 C 2.769531 -3.1875 2.386719 -3.367188 1.9375 -3.367188 C 1.480469 -3.367188 1.101562 -3.1875 0.785156 -2.84375 C 0.488281 -2.5 0.335938 -2.101562 0.335938 -1.644531 C 0.335938 -1.183594 0.488281 -0.785156 0.785156 -0.449219 C 1.101562 -0.0976562 1.480469 0.0742188 1.9375 0.0742188 C 2.386719 0.0742188 2.769531 -0.0976562 3.082031 -0.449219 C 3.113281 -0.480469 3.148438 -0.515625 3.179688 -0.5625 L 3.179688 0 Z M 3.703125 0 "/></g></g></g><g fill="rgb(0%, 0%, 0%)" fill-opacity="1"><g transform="translate(56.787802, 53.656506)"><g/></g></g><g fill="rgb(0%, 0%, 0%)" fill-opacity="1"><g transform="translate(60.304397, 53.656506)"><g><path d="M 0.980469 1.871094 L 3.253906 -3.292969 L 2.671875 -3.292969 L 1.726562 -1.085938 L 0.671875 -3.292969 L 0.0742188 -3.292969 L 1.453125 -0.539062 L 0.34375 1.871094 Z M 0.980469 1.871094 "/></g></g></g><g fill="rgb(0%, 0%, 0%)" fill-opacity="1"><g transform="translate(64.980725, 53.656506)"><g><path d="M 3.253906 -1.660156 C 3.253906 -1.332031 3.136719 -1.054688 2.902344 -0.824219 C 2.664062 -0.582031 2.386719 -0.472656 2.058594 -0.472656 C 1.726562 -0.472656 1.445312 -0.582031 1.210938 -0.824219 C 0.972656 -1.054688 0.859375 -1.332031 0.859375 -1.660156 C 0.859375 -1.992188 0.972656 -2.265625 1.210938 -2.507812 C 1.445312 -2.738281 1.726562 -2.859375 2.058594 -2.859375 C 2.386719 -2.859375 2.664062 -2.738281 2.902344 -2.507812 C 3.136719 -2.265625 3.253906 -1.992188 3.253906 -1.660156 Z M 3.777344 -1.660156 C 3.777344 -2.132812 3.605469 -2.535156 3.269531 -2.875 C 2.933594 -3.210938 2.527344 -3.382812 2.058594 -3.382812 C 1.578125 -3.382812 1.175781 -3.210938 0.839844 -2.875 C 0.5 -2.535156 0.335938 -2.132812 0.335938 -1.660156 C 0.335938 -1.183594 0.5 -0.777344 0.839844 -0.449219 C 1.175781 -0.113281 1.585938 0.0507812 2.058594 0.0507812 C 2.519531 0.0507812 2.933594 -0.113281 3.269531 -0.449219 C 3.605469 -0.777344 3.777344 -1.183594 3.777344 -1.660156 Z M 3.777344 -1.660156 "/></g></g></g><g fill="rgb(0%, 0%, 0%)" fill-opacity="1"><g transform="translate(70.592323, 53.656506)"><g><path d="M 2.835938 -0.5625 L 2.835938 0 L 3.359375 0 L 3.359375 -3.292969 L 2.835938 -3.292969 L 2.835938 -1.914062 C 2.835938 -1.453125 2.746094 -1.101562 2.574219 -0.839844 C 2.410156 -0.582031 2.117188 -0.457031 1.714844 -0.457031 C 1.488281 -0.457031 1.324219 -0.53125 1.226562 -0.679688 C 1.128906 -0.832031 1.085938 -1.015625 1.085938 -1.234375 L 1.085938 -3.292969 L 0.5625 -3.292969 L 0.5625 -1.234375 C 0.5625 -0.851562 0.660156 -0.539062 0.867188 -0.292969 C 1.078125 -0.0507812 1.363281 0.0664062 1.734375 0.0664062 C 2.222656 0.0664062 2.589844 -0.140625 2.835938 -0.5625 Z M 2.835938 -0.5625 "/></g></g></g><g fill="rgb(0%, 0%, 0%)" fill-opacity="1"><g transform="translate(75.897154, 53.656506)"><g><path d="M 2.253906 -2.609375 L 2.253906 -3.292969 C 2.148438 -3.335938 2.035156 -3.359375 1.921875 -3.359375 C 1.546875 -3.359375 1.28125 -3.148438 1.105469 -2.746094 L 1.085938 -2.609375 L 1.085938 -3.292969 L 0.5625 -3.292969 L 0.5625 0 L 1.085938 0 L 1.085938 -1.644531 C 1.085938 -1.914062 1.144531 -2.15625 1.273438 -2.371094 C 1.332031 -2.484375 1.414062 -2.582031 1.511719 -2.65625 C 1.609375 -2.730469 1.726562 -2.777344 1.863281 -2.777344 C 1.996094 -2.777344 2.125 -2.714844 2.253906 -2.609375 Z M 2.253906 -2.609375 "/></g></g></g><g fill="rgb(0%, 0%, 0%)" fill-opacity="1"><g transform="translate(79.720517, 53.656506)"><g/></g></g><g fill="rgb(0%, 0%, 0%)" fill-opacity="1"><g transform="translate(83.237112, 53.656506)"><g><path d="M 3.179688 -1.644531 C 3.179688 -1.324219 3.066406 -1.039062 2.84375 -0.808594 C 2.617188 -0.570312 2.34375 -0.449219 2.019531 -0.449219 C 1.691406 -0.449219 1.414062 -0.570312 1.191406 -0.808594 C 0.964844 -1.039062 0.859375 -1.324219 0.859375 -1.644531 C 0.859375 -1.960938 0.964844 -2.246094 1.191406 -2.484375 C 1.414062 -2.722656 1.691406 -2.84375 2.019531 -2.84375 C 2.34375 -2.84375 2.617188 -2.722656 2.84375 -2.484375 C 3.066406 -2.246094 3.179688 -1.960938 3.179688 -1.644531 Z M 3.703125 0 L 3.703125 -5.613281 L 3.179688 -5.613281 L 3.179688 -2.722656 C 3.148438 -2.769531 3.113281 -2.804688 3.082031 -2.84375 C 2.769531 -3.1875 2.386719 -3.367188 1.9375 -3.367188 C 1.480469 -3.367188 1.101562 -3.1875 0.785156 -2.84375 C 0.488281 -2.5 0.335938 -2.101562 0.335938 -1.644531 C 0.335938 -1.183594 0.488281 -0.785156 0.785156 -0.449219 C 1.101562 -0.0976562 1.480469 0.0742188 1.9375 0.0742188 C 2.386719 0.0742188 2.769531 -0.0976562 3.082031 -0.449219 C 3.113281 -0.480469 3.148438 -0.515625 3.179688 -0.5625 L 3.179688 0 Z M 3.703125 0 "/></g></g></g><g fill="rgb(0%, 0%, 0%)" fill-opacity="1"><g transform="translate(88.998346, 53.656506)"><g><path d="M 2.253906 -2.609375 L 2.253906 -3.292969 C 2.148438 -3.335938 2.035156 -3.359375 1.921875 -3.359375 C 1.546875 -3.359375 1.28125 -3.148438 1.105469 -2.746094 L 1.085938 -2.609375 L 1.085938 -3.292969 L 0.5625 -3.292969 L 0.5625 0 L 1.085938 0 L 1.085938 -1.644531 C 1.085938 -1.914062 1.144531 -2.15625 1.273438 -2.371094 C 1.332031 -2.484375 1.414062 -2.582031 1.511719 -2.65625 C 1.609375 -2.730469 1.726562 -2.777344 1.863281 -2.777344 C 1.996094 -2.777344 2.125 -2.714844 2.253906 -2.609375 Z M 2.253906 -2.609375 "/></g></g></g><g fill="rgb(0%, 0%, 0%)" fill-opacity="1"><g transform="translate(92.821704, 53.656506)"><g><path d="M 3.777344 -1.722656 C 3.777344 -2.167969 3.597656 -2.558594 3.253906 -2.894531 C 2.917969 -3.21875 2.515625 -3.382812 2.058594 -3.382812 C 1.578125 -3.382812 1.175781 -3.210938 0.839844 -2.875 C 0.5 -2.535156 0.335938 -2.132812 0.335938 -1.660156 C 0.335938 -1.183594 0.5 -0.777344 0.839844 -0.449219 C 0.996094 -0.292969 1.175781 -0.171875 1.382812 -0.0820312 C 1.59375 0.0078125 1.839844 0.0507812 2.132812 0.0507812 C 2.425781 0.0507812 2.707031 -0.0390625 2.992188 -0.21875 C 3.277344 -0.398438 3.488281 -0.652344 3.628906 -0.964844 L 3.03125 -0.964844 C 2.910156 -0.808594 2.769531 -0.6875 2.597656 -0.597656 C 2.425781 -0.507812 2.246094 -0.472656 2.058594 -0.472656 C 1.773438 -0.472656 1.519531 -0.5625 1.292969 -0.75 C 1.070312 -0.929688 0.929688 -1.160156 0.882812 -1.445312 L 3.777344 -1.445312 Z M 3.226562 -1.894531 L 0.890625 -1.894531 C 0.921875 -2.027344 0.972656 -2.15625 1.046875 -2.273438 C 1.285156 -2.664062 1.625 -2.859375 2.058594 -2.859375 C 2.335938 -2.859375 2.582031 -2.769531 2.796875 -2.589844 C 3.023438 -2.402344 3.15625 -2.167969 3.226562 -1.894531 Z M 3.226562 -1.894531 "/></g></g></g><g fill="rgb(0%, 0%, 0%)" fill-opacity="1"><g transform="translate(98.39588, 53.656506)"><g><path d="M 3.179688 -1.644531 C 3.179688 -1.324219 3.066406 -1.039062 2.84375 -0.808594 C 2.617188 -0.570312 2.34375 -0.449219 2.019531 -0.449219 C 1.691406 -0.449219 1.414062 -0.570312 1.191406 -0.808594 C 0.964844 -1.039062 0.859375 -1.324219 0.859375 -1.644531 C 0.859375 -1.960938 0.964844 -2.246094 1.191406 -2.484375 C 1.414062 -2.722656 1.691406 -2.84375 2.019531 -2.84375 C 2.34375 -2.84375 2.617188 -2.722656 2.84375 -2.484375 C 3.066406 -2.246094 3.179688 -1.960938 3.179688 -1.644531 Z M 3.703125 0 L 3.703125 -3.292969 L 3.179688 -3.292969 L 3.179688 -2.722656 C 3.148438 -2.769531 3.113281 -2.804688 3.082031 -2.84375 C 2.769531 -3.1875 2.386719 -3.367188 1.9375 -3.367188 C 1.480469 -3.367188 1.101562 -3.1875 0.785156 -2.84375 C 0.488281 -2.5 0.335938 -2.101562 0.335938 -1.644531 C 0.335938 -1.183594 0.488281 -0.785156 0.785156 -0.449219 C 1.101562 -0.0976562 1.480469 0.0742188 1.9375 0.0742188 C 2.386719 0.0742188 2.769531 -0.0976562 3.082031 -0.449219 C 3.113281 -0.480469 3.148438 -0.515625 3.179688 -0.5625 L 3.179688 0 Z M 3.703125 0 "/></g></g></g><g fill="rgb(0%, 0%, 0%)" fill-opacity="1"><g transform="translate(104.157109, 53.656506)"><g><path d="M 4.734375 -0.015625 L 5.261719 -0.015625 L 5.261719 -2.074219 C 5.261719 -2.4375 5.164062 -2.746094 4.984375 -2.984375 C 4.894531 -3.105469 4.773438 -3.195312 4.640625 -3.269531 C 4.496094 -3.34375 4.308594 -3.382812 4.085938 -3.382812 C 3.851562 -3.382812 3.652344 -3.316406 3.480469 -3.195312 C 3.320312 -3.074219 3.195312 -2.933594 3.089844 -2.753906 C 3.050781 -2.835938 3.007812 -2.910156 2.957031 -2.984375 C 2.867188 -3.105469 2.746094 -3.195312 2.609375 -3.269531 C 2.46875 -3.34375 2.28125 -3.382812 2.058594 -3.382812 C 1.824219 -3.382812 1.625 -3.316406 1.453125 -3.195312 C 1.300781 -3.082031 1.183594 -2.949219 1.085938 -2.777344 L 1.085938 -3.308594 L 0.5625 -3.308594 L 0.5625 -0.015625 L 1.085938 -0.015625 L 1.085938 -1.699219 C 1.105469 -1.960938 1.175781 -2.191406 1.285156 -2.378906 C 1.363281 -2.515625 1.472656 -2.632812 1.609375 -2.722656 C 1.742188 -2.8125 1.886719 -2.859375 2.042969 -2.859375 C 2.191406 -2.859375 2.3125 -2.828125 2.386719 -2.785156 C 2.597656 -2.648438 2.707031 -2.410156 2.707031 -2.074219 L 2.707031 -0.015625 L 3.230469 -0.015625 L 3.230469 -2.074219 C 3.230469 -2.109375 3.226562 -2.15625 3.226562 -2.191406 C 3.246094 -2.257812 3.277344 -2.320312 3.316406 -2.378906 C 3.390625 -2.515625 3.5 -2.632812 3.636719 -2.722656 C 3.769531 -2.8125 3.914062 -2.859375 4.070312 -2.859375 C 4.21875 -2.859375 4.339844 -2.828125 4.414062 -2.785156 C 4.625 -2.648438 4.734375 -2.410156 4.734375 -2.074219 Z M 4.734375 -0.015625 "/></g></g></g><g fill="rgb(0%, 0%, 0%)" fill-opacity="1"><g transform="translate(111.362397, 53.656506)"><g/></g></g><g fill="rgb(0%, 0%, 0%)" fill-opacity="1"><g transform="translate(114.878987, 53.656506)"><g><path d="M 1.085938 0 L 1.085938 -1.375 C 1.085938 -1.832031 1.160156 -2.175781 1.316406 -2.417969 C 1.40625 -2.550781 1.519531 -2.648438 1.660156 -2.722656 C 1.796875 -2.796875 1.984375 -2.835938 2.207031 -2.835938 C 2.433594 -2.835938 2.589844 -2.753906 2.6875 -2.605469 C 2.785156 -2.453125 2.835938 -2.265625 2.835938 -2.058594 L 2.835938 0 L 3.359375 0 L 3.359375 -2.058594 C 3.359375 -2.4375 3.253906 -2.746094 3.058594 -2.976562 C 2.957031 -3.097656 2.835938 -3.1875 2.695312 -3.253906 C 2.542969 -3.320312 2.355469 -3.359375 2.125 -3.359375 C 1.886719 -3.359375 1.683594 -3.292969 1.503906 -3.171875 C 1.332031 -3.058594 1.191406 -2.910156 1.085938 -2.722656 L 1.085938 -5.613281 L 0.5625 -5.613281 L 0.5625 0 Z M 1.085938 0 "/></g></g></g><g fill="rgb(0%, 0%, 0%)" fill-opacity="1"><g transform="translate(120.183812, 53.656506)"><g><path d="M 3.253906 -1.660156 C 3.253906 -1.332031 3.136719 -1.054688 2.902344 -0.824219 C 2.664062 -0.582031 2.386719 -0.472656 2.058594 -0.472656 C 1.726562 -0.472656 1.445312 -0.582031 1.210938 -0.824219 C 0.972656 -1.054688 0.859375 -1.332031 0.859375 -1.660156 C 0.859375 -1.992188 0.972656 -2.265625 1.210938 -2.507812 C 1.445312 -2.738281 1.726562 -2.859375 2.058594 -2.859375 C 2.386719 -2.859375 2.664062 -2.738281 2.902344 -2.507812 C 3.136719 -2.265625 3.253906 -1.992188 3.253906 -1.660156 Z M 3.777344 -1.660156 C 3.777344 -2.132812 3.605469 -2.535156 3.269531 -2.875 C 2.933594 -3.210938 2.527344 -3.382812 2.058594 -3.382812 C 1.578125 -3.382812 1.175781 -3.210938 0.839844 -2.875 C 0.5 -2.535156 0.335938 -2.132812 0.335938 -1.660156 C 0.335938 -1.183594 0.5 -0.777344 0.839844 -0.449219 C 1.175781 -0.113281 1.585938 0.0507812 2.058594 0.0507812 C 2.519531 0.0507812 2.933594 -0.113281 3.269531 -0.449219 C 3.605469 -0.777344 3.777344 -1.183594 3.777344 -1.660156 Z M 3.777344 -1.660156 "/></g></g></g><g fill="rgb(0%, 0%, 0%)" fill-opacity="1"><g transform="translate(125.795406, 53.656506)"><g><path d="M 4.734375 -0.015625 L 5.261719 -0.015625 L 5.261719 -2.074219 C 5.261719 -2.4375 5.164062 -2.746094 4.984375 -2.984375 C 4.894531 -3.105469 4.773438 -3.195312 4.640625 -3.269531 C 4.496094 -3.34375 4.308594 -3.382812 4.085938 -3.382812 C 3.851562 -3.382812 3.652344 -3.316406 3.480469 -3.195312 C 3.320312 -3.074219 3.195312 -2.933594 3.089844 -2.753906 C 3.050781 -2.835938 3.007812 -2.910156 2.957031 -2.984375 C 2.867188 -3.105469 2.746094 -3.195312 2.609375 -3.269531 C 2.46875 -3.34375 2.28125 -3.382812 2.058594 -3.382812 C 1.824219 -3.382812 1.625 -3.316406 1.453125 -3.195312 C 1.300781 -3.082031 1.183594 -2.949219 1.085938 -2.777344 L 1.085938 -3.308594 L 0.5625 -3.308594 L 0.5625 -0.015625 L 1.085938 -0.015625 L 1.085938 -1.699219 C 1.105469 -1.960938 1.175781 -2.191406 1.285156 -2.378906 C 1.363281 -2.515625 1.472656 -2.632812 1.609375 -2.722656 C 1.742188 -2.8125 1.886719 -2.859375 2.042969 -2.859375 C 2.191406 -2.859375 2.3125 -2.828125 2.386719 -2.785156 C 2.597656 -2.648438 2.707031 -2.410156 2.707031 -2.074219 L 2.707031 -0.015625 L 3.230469 -0.015625 L 3.230469 -2.074219 C 3.230469 -2.109375 3.226562 -2.15625 3.226562 -2.191406 C 3.246094 -2.257812 3.277344 -2.320312 3.316406 -2.378906 C 3.390625 -2.515625 3.5 -2.632812 3.636719 -2.722656 C 3.769531 -2.8125 3.914062 -2.859375 4.070312 -2.859375 C 4.21875 -2.859375 4.339844 -2.828125 4.414062 -2.785156 C 4.625 -2.648438 4.734375 -2.410156 4.734375 -2.074219 Z M 4.734375 -0.015625 "/></g></g></g><g fill="rgb(0%, 0%, 0%)" fill-opacity="1"><g transform="translate(133.000694, 53.656506)"><g><path d="M 3.777344 -1.722656 C 3.777344 -2.167969 3.597656 -2.558594 3.253906 -2.894531 C 2.917969 -3.21875 2.515625 -3.382812 2.058594 -3.382812 C 1.578125 -3.382812 1.175781 -3.210938 0.839844 -2.875 C 0.5 -2.535156 0.335938 -2.132812 0.335938 -1.660156 C 0.335938 -1.183594 0.5 -0.777344 0.839844 -0.449219 C 0.996094 -0.292969 1.175781 -0.171875 1.382812 -0.0820312 C 1.59375 0.0078125 1.839844 0.0507812 2.132812 0.0507812 C 2.425781 0.0507812 2.707031 -0.0390625 2.992188 -0.21875 C 3.277344 -0.398438 3.488281 -0.652344 3.628906 -0.964844 L 3.03125 -0.964844 C 2.910156 -0.808594 2.769531 -0.6875 2.597656 -0.597656 C 2.425781 -0.507812 2.246094 -0.472656 2.058594 -0.472656 C 1.773438 -0.472656 1.519531 -0.5625 1.292969 -0.75 C 1.070312 -0.929688 0.929688 -1.160156 0.882812 -1.445312 L 3.777344 -1.445312 Z M 3.226562 -1.894531 L 0.890625 -1.894531 C 0.921875 -2.027344 0.972656 -2.15625 1.046875 -2.273438 C 1.285156 -2.664062 1.625 -2.859375 2.058594 -2.859375 C 2.335938 -2.859375 2.582031 -2.769531 2.796875 -2.589844 C 3.023438 -2.402344 3.15625 -2.167969 3.226562 -1.894531 Z M 3.226562 -1.894531 "/></g></g></g></svg>